<svg xmlns="http://www.w3.org/2000/svg" xmlns:xlink="http://www.w3.org/1999/xlink" xml:space="preserve" width="500" height="500" overflow="visible" version="1.0" viewBox="0 0 105.427 137.439" data-ember-extension="1">
  <defs>
    <linearGradient xlink:href="#a" id="r" x1="26.294399" x2="71.901901" y1="11.6704" y2="133.0273" gradientUnits="userSpaceOnUse"/>
    <linearGradient xlink:href="#a" id="u" x1="36.838902" x2="82.446297" y1="7.7075" y2="129.0645" gradientUnits="userSpaceOnUse"/>
    <linearGradient id="a" x1="33.882301" x2="39.972198" y1="23.583" y2="23.583" gradientUnits="userSpaceOnUse">
      <stop offset="0" stop-color="#ff5d5d"/>
      <stop offset="1" stop-color="#e20800"/>
    </linearGradient>
    <linearGradient xlink:href="#a" id="q" x1="33.882301" x2="39.972198" y1="23.583" y2="23.583" gradientUnits="userSpaceOnUse"/>
    <linearGradient xlink:href="#a" id="t" x1="54.356899" x2="99.964401" y1="1.124" y2="122.481" gradientUnits="userSpaceOnUse"/>
    <linearGradient xlink:href="#a" id="v" x1="15.8457" x2="61.453098" y1="15.5972" y2="136.9541" gradientUnits="userSpaceOnUse"/>
    <linearGradient xlink:href="#a" id="s" x1="43.438" x2="89.045403" y1="5.2275" y2="126.5845" gradientUnits="userSpaceOnUse"/>
    <linearGradient xlink:href="#b" id="n" x1="8.1176996" x2="70.759598" y1="14.9019" y2="117.2331" gradientTransform="matrix(.9991 -.0418 .0418 .9991 -2.4309 1.195)" gradientUnits="userSpaceOnUse"/>
    <linearGradient xlink:href="#b" id="k" x1="10.5708" x2="73.2117" y1="10.1548" y2="112.4844" gradientUnits="userSpaceOnUse"/>
    <linearGradient id="f" x1="6.2178001" x2="79.360802" y1="72.223602" y2="72.223602" gradientTransform="translate(0 2.1512354)" gradientUnits="userSpaceOnUse">
      <stop offset="0" stop-color="#fff"/>
      <stop offset="1" stop-color="#eeeeec"/>
    </linearGradient>
    <filter id="l">
      <feGaussianBlur stdDeviation="1.2254964"/>
    </filter>
    <filter id="o">
      <feGaussianBlur stdDeviation="1.3615922"/>
    </filter>
    <filter id="e">
      <feGaussianBlur stdDeviation=".8944793"/>
    </filter>
  </defs>
  <filter id="g">
    <feGaussianBlur stdDeviation="1"/>
  </filter>
  <g transform="translate(-3.22069493 3.4291224) scale(.99826)">
    <linearGradient id="c" x1="6.2178001" x2="79.360802" y1="68.029297" y2="68.029297" gradientUnits="userSpaceOnUse">
      <stop offset="0" stop-color="#fff"/>
      <stop offset="1" stop-color="#eeeeec"/>
    </linearGradient>
    <path fill="url(#c)" d="M9.542 121.224c-1.829 0-3.325-1.496-3.325-3.324V18.16c0-1.829 1.496-3.325 3.325-3.325h66.494c1.828 0 3.324 1.496 3.324 3.325v99.74c0 1.828-1.496 3.324-3.324 3.324H9.542z"/>
  </g>
  <g transform="translate(-3.22069493 3.4291224) scale(.99826)">
    <linearGradient id="d" x1="10.5718" x2="73.212097" y1="15.3989" y2="117.7277" gradientUnits="userSpaceOnUse">
      <stop offset="0" stop-color="#77b753"/>
      <stop offset="1" stop-color="#00892c"/>
    </linearGradient>
    <path fill="url(#d)" d="M11.204 18.159c-.914 0-1.662.748-1.662 1.662v96.416c0 .914.748 1.662 1.662 1.662h63.171c.914 0 1.662-.748 1.662-1.662V19.821c0-.914-.748-1.662-1.662-1.662H11.204z"/>
  </g>
  <path d="M11.639 126.468c-1.828 0-3.325-1.496-3.325-3.325v-99.74c0-1.829 1.497-3.325 3.325-3.325h66.495c1.828 0 3.324 1.496 3.324 3.325v99.74c0 1.829-1.496 3.325-3.324 3.325H11.639z" filter="url(#e)" opacity=".6" transform="matrix(1.03963 0 0 .99826 -6.5911568 6.574863)"/>
  <path fill="url(#f)" d="M9.542 127.56924c-1.828 0-3.324-1.496-3.324-3.323V24.505236c0-1.828 1.496-3.324 3.324-3.324h66.495c1.828 0 3.324 1.496 3.324 3.324v99.741004c0 1.827-1.496 3.323-3.324 3.323H9.542z" transform="translate(-2.1469527 3.4291224) scale(.99826)"/>
  <g transform="translate(-2.1469527 5.5766067) scale(.99826)">
    <g filter="url(#g)" opacity=".5" transform="matrix(1.02763 0 0 1 -2.2508995 0)">
      <path d="M11.639 123.321c-1.828 0-3.325-1.497-3.325-3.324h73.144c0 1.827-1.496 3.324-3.324 3.324H11.639z"/>
    </g>
    <linearGradient id="h" x1="6.2178001" x2="79.360802" y1="69.078102" y2="69.078102" gradientUnits="userSpaceOnUse">
      <stop offset="0" stop-color="#fff"/>
      <stop offset="1" stop-color="#eeeeec"/>
    </linearGradient>
    <path fill="url(#h)" d="M9.542 122.272c-1.828 0-3.324-1.496-3.324-3.325v-99.74c0-1.829 1.496-3.325 3.324-3.325h66.495c1.828 0 3.324 1.496 3.324 3.325v99.74c0 1.829-1.496 3.325-3.324 3.325H9.542z"/>
  </g>
  <g transform="translate(-2.1469527 6.65034884) scale(.99826)">
    <g filter="url(#g)" opacity=".5" transform="matrix(1.03684 0 0 1 -3.0011994 -1.0756177)">
      <path d="M11.639 120.175c-1.828 0-3.325-1.496-3.325-3.325h73.144c0 1.829-1.496 3.325-3.324 3.325H11.639z"/>
    </g>
    <linearGradient id="i" x1="6.2178001" x2="79.360802" y1="65.931602" y2="65.931602" gradientTransform="translate(0 -1.0756177)" gradientUnits="userSpaceOnUse">
      <stop offset="0" stop-color="#fff"/>
      <stop offset="1" stop-color="#eeeeec"/>
    </linearGradient>
    <path fill="url(#i)" d="M9.542 118.05038c-1.828 0-3.324-1.496-3.324-3.324V14.986382c0-1.829 1.496-3.325 3.324-3.325h66.495c1.828 0 3.324 1.496 3.324 3.325v99.739998c0 1.828-1.496 3.324-3.324 3.324H9.542z"/>
  </g>
  <g transform="translate(-2.1469527 5.2577237) scale(.99826)">
    <g filter="url(#g)" opacity=".5" transform="matrix(1.01842 0 0 1.01583 -1.4821779 -1.8527316)">
      <path d="M10.639 117.029c-1.828 0-3.325-1.497-3.325-3.325v-99.74c0-1.829 1.497-3.325 3.325-3.325h66.495c1.828 0 3.324 1.496 3.324 3.325v99.74c0 1.828-1.496 3.325-3.324 3.325H10.639z"/>
    </g>
    <linearGradient id="j" x1="6.2178001" x2="79.360802" y1="62.785599" y2="62.785599" gradientUnits="userSpaceOnUse">
      <stop offset="0" stop-color="#fff"/>
      <stop offset="1" stop-color="#eeeeec"/>
    </linearGradient>
    <path fill="url(#j)" d="M9.542 115.98c-1.828 0-3.324-1.497-3.324-3.324v-99.74c0-1.829 1.496-3.325 3.324-3.325h66.495c1.828 0 3.324 1.496 3.324 3.325v99.741c0 1.827-1.496 3.324-3.324 3.324H9.542v-.001z"/>
    <linearGradient id="b" x1="10.5708" x2="73.2117" y1="10.1548" y2="112.4844" gradientUnits="userSpaceOnUse">
      <stop offset="0" stop-color="#73bdf2"/>
      <stop offset="1" stop-color="#3592ee"/>
    </linearGradient>
    <path fill="url(#k)" d="M11.204 12.916c-.915 0-1.663.748-1.663 1.662v96.416c0 .915.748 1.663 1.663 1.663h63.169c.915 0 1.663-.748 1.663-1.663V14.578c0-.914-.748-1.662-1.663-1.662H11.204z"/>
  </g>
  <g filter="url(#l)" opacity=".6" transform="matrix(1.0272 -.0671 .06607 1.01151 -11.88962919 -4.8134302)">
    <path d="M10.744 123.615c-1.827.076-3.384-1.356-3.461-3.183L3.118 20.779c-.076-1.827 1.356-3.384 3.183-3.46l66.436-2.777c1.826-.077 3.384 1.356 3.461 3.183l4.165 99.652c.076 1.827-1.356 3.384-3.182 3.462l-66.437 2.776z"/>
  </g>
  <g transform="matrix(.99613 -.06507 .06507 .99613 -8.9545302 -3.0956215)">
    <linearGradient id="m" x1="3.7607" x2="76.909698" y1="67.532204" y2="67.532204" gradientTransform="matrix(.9991 -.0418 .0418 .9991 -2.4309 1.195)" gradientUnits="userSpaceOnUse">
      <stop offset="0" stop-color="#fff"/>
      <stop offset="1" stop-color="#eeeeec"/>
    </linearGradient>
    <path fill="url(#m)" d="M9.695 121.518c-1.827.077-3.384-1.355-3.461-3.183L2.069 18.682c-.076-1.827 1.356-3.384 3.183-3.46l66.436-2.778c1.826-.076 3.384 1.356 3.461 3.183l4.165 99.653c.077 1.826-1.355 3.383-3.183 3.461l-66.436 2.777z"/>
  </g>
  <path fill="url(#n)" d="M7.051 18.474c-.913.039-1.629.817-1.591 1.73l4.026 96.331c.039.913.817 1.629 1.731 1.591l63.114-2.637c.913-.038 1.629-.817 1.591-1.73l-4.025-96.332c-.038-.914-.817-1.63-1.73-1.591L7.051 18.474z" transform="matrix(.99613 -.06507 .06507 .99613 -8.9545302 -3.0956215)"/>
  <path fill="none" stroke="#fff" stroke-dasharray=".99826001 .99826001" stroke-width=".99826" d="M2.02690883 18.57064336c3.26428192 30.35058097 6.52856391 60.70116294 9.79284583 91.05174391 19.3509805-2.07684353 38.70195999-4.153687 58.05294047-6.23053053-3.26428192-30.35058097-6.5285639-60.70116294-9.79284583-91.05174392L2.02690883 18.57064336z" opacity=".6"/>
  <g transform="translate(7.5167273 -1.9395886) scale(.99826)">
    <g filter="url(#o)" opacity=".6" transform="translate(-4e-8 1.0756177)">
      <path d="M10.854785 112.52047c-1.8372959-.42391-2.9871539-2.24737-2.5556991-4.05156L31.839177 9.9940152c.432487-1.805204 2.288362-2.9359919 4.125658-2.5120732l66.816655 15.419282c1.83627.423918 2.98716 2.248391 2.55467 4.053595L81.79607 125.42768c-.431455 1.80521-2.288362 2.936-4.124626 2.51208l-66.816659-15.41929z"/>
    </g>
    <linearGradient id="p" x1="16.688499" x2="94.108398" y1="-8.9546003" y2="105.6356" gradientTransform="rotate(13.22 -27.27773717 66.3238305)" gradientUnits="userSpaceOnUse">
      <stop offset="0" stop-color="#fff"/>
      <stop offset="1" stop-color="#eeeeec"/>
    </linearGradient>
    <path fill="url(#p)" d="M12.707 111.688c-1.78-.417-2.894-2.216-2.476-3.996l22.806-97.099c.418-1.78 2.217-2.895 3.997-2.477l64.733 15.204c1.779.418 2.894 2.217 2.476 3.997l-22.807 97.098c-.417 1.78-2.217 2.895-3.996 2.477l-64.733-15.204z"/>
    <path fill="url(#q)" d="m33.925 25.17 1.51.13c-.066.46-.022.834.132 1.122.154.288.374.465.659.532.312.073.606-.007.888-.239.282-.232.48-.599.598-1.1.109-.466.093-.856-.051-1.17-.144-.313-.363-.506-.657-.575-.193-.045-.433-.053-.723-.024l.516-1.46c.39.101.725.069 1.004-.094.275-.165.459-.445.552-.841.078-.331.057-.608-.062-.833-.119-.226-.307-.368-.562-.428-.256-.06-.503-.003-.742.168-.238.173-.425.467-.56.882l-1.323-.616c.351-.844.782-1.416 1.297-1.715.514-.299 1.091-.373 1.73-.223.719.169 1.229.558 1.532 1.167.304.609.382 1.223.237 1.842-.098.418-.282.773-.55 1.063-.269.291-.624.518-1.063.681.412.222.709.565.893 1.032.182.466.203 1 .062 1.602-.206.876-.638 1.54-1.294 1.991-.658.451-1.347.591-2.068.422-.691-.163-1.219-.542-1.583-1.139-.366-.596-.489-1.322-.372-2.177z"/>
    <path fill="url(#r)" d="M32.977 38.964c.642-1.384 1.926-2.414 2.834-3.019.941-.626 1.679-1.395 1.918-2.415.365-1.551-1.258-3.273-3.108-1.533-.881-2.381-3.114-1.564-3.478-.013-.24 1.019.08 2.035.643 3.016.543.946 1.235 2.439 1.191 3.964z"/>
    <path fill="#e20800" d="m80.223 109.559-1.512-.129c.068-.461.023-.835-.131-1.122-.154-.288-.375-.466-.658-.532-.312-.073-.607.006-.889.238-.282.232-.48.6-.6 1.1-.109.467-.092.856.051 1.17.145.314.365.506.658.575.193.045.434.054.723.024l-.516 1.46c-.391-.101-.725-.069-1.004.096-.275.164-.459.444-.553.84-.078.33-.057.608.062.833.119.227.307.369.562.429.256.061.502.004.74-.169.238-.172.426-.466.561-.882l1.322.616c-.35.844-.781 1.415-1.297 1.714-.514.299-1.09.373-1.729.223-.719-.169-1.23-.557-1.533-1.167-.305-.608-.383-1.223-.236-1.842.098-.418.281-.772.551-1.063.268-.29.623-.518 1.062-.682-.412-.22-.711-.564-.893-1.03-.184-.466-.203-1-.062-1.602.207-.877.639-1.54 1.295-1.991.658-.45 1.346-.591 2.068-.422.691.162 1.219.542 1.584 1.138.368.596.491 1.322.374 2.177z"/>
    <path fill="url(#s)" d="M81.063 95.83c-.641 1.384-1.925 2.414-2.833 3.02-.94.627-1.68 1.396-1.919 2.414-.364 1.551 1.259 3.272 3.108 1.533.882 2.381 3.114 1.564 3.479.014.24-1.02-.079-2.035-.643-3.016-.544-.946-1.234-2.44-1.192-3.965z"/>
    <path fill="url(#t)" d="M63.174 42.222c1.187-2.566 3.568-4.474 5.253-5.597 1.744-1.162 3.113-2.585 3.558-4.475.675-2.876-2.334-6.069-5.765-2.843-1.635-4.415-5.772-2.901-6.448-.026-.443 1.891.149 3.774 1.193 5.592 1.005 1.755 2.288 4.523 2.209 7.349z"/>
    <path fill="url(#u)" d="M55.486 74.959c1.186-2.566 3.568-4.474 5.251-5.597 1.744-1.162 3.114-2.585 3.559-4.476.674-2.876-2.334-6.068-5.764-2.843-1.635-4.415-5.773-2.901-6.45-.025-.444 1.89.148 3.774 1.193 5.591 1.006 1.755 2.29 4.523 2.211 7.35z"/>
    <path fill="url(#v)" d="M51.37 92.488c-1.188 2.566-3.569 4.473-5.253 5.596-1.744 1.162-3.113 2.586-3.558 4.477-.675 2.875 2.334 6.066 5.764 2.843 1.635 4.416 5.773 2.9 6.449.024.445-1.89-.149-3.773-1.193-5.592-1.006-1.754-2.288-4.522-2.209-7.348z"/>
  </g>
</svg>